<?xml version="1.0" encoding="UTF-8" standalone="no"?>
<!DOCTYPE svg PUBLIC "-//W3C//DTD SVG 1.1//EN"
 "http://www.w3.org/Graphics/SVG/1.1/DTD/svg11.dtd">
<!-- Generated by graphviz version 2.28.0 (20111029.1739)
 -->
<!-- Title: G Pages: 1 -->
<svg width="158pt" height="254pt"
 viewBox="0.00 0.00 158.00 254.00" xmlns="http://www.w3.org/2000/svg" xmlns:xlink="http://www.w3.org/1999/xlink">
<g id="graph1" class="graph" transform="scale(1 1) rotate(0) translate(4 250)">
<title>G</title>
<!-- Node1 -->
<g id="node1" class="node"><title>Node1</title>
<polygon fill="#bfbfbf" stroke="black" points="25.5,-0.5 25.5,-57.5 84.5,-57.5 84.5,-0.5 25.5,-0.5"/>
<text text-anchor="middle" x="55" y="-45.5" font-family="Helvetica,sans-Serif" font-size="10.00">D</text>
<polyline fill="none" stroke="black" points="25.5,-38.5 84.5,-38.5 "/>
<text text-anchor="start" x="33.5" y="-26.5" font-family="Helvetica,sans-Serif" font-size="10.00">+ m_child</text>
<polyline fill="none" stroke="black" points="25.5,-19.5 84.5,-19.5 "/>
<text text-anchor="middle" x="55" y="-7.5" font-family="Helvetica,sans-Serif" font-size="10.00"> </text>
</g>
<!-- Node2 -->
<g id="node2" class="node"><title>Node2</title>
<a xlink:href="../../d8/d4f/class_a.html" target="_top" xlink:title="{A\n|+ m_parent\l|}">
<polygon fill="none" stroke="black" points="0,-188.5 0,-245.5 66,-245.5 66,-188.5 0,-188.5"/>
<text text-anchor="middle" x="33" y="-233.5" font-family="Helvetica,sans-Serif" font-size="10.00">A</text>
<polyline fill="none" stroke="black" points="0,-226.5 66,-226.5 "/>
<text text-anchor="start" x="8" y="-214.5" font-family="Helvetica,sans-Serif" font-size="10.00">+ m_parent</text>
<polyline fill="none" stroke="black" points="0,-207.5 66,-207.5 "/>
<text text-anchor="middle" x="33" y="-195.5" font-family="Helvetica,sans-Serif" font-size="10.00"> </text>
</a>
</g>
<!-- Node2&#45;&gt;Node1 -->
<g id="edge2" class="edge"><title>Node2&#45;&gt;Node1</title>
<path fill="none" stroke="darkgreen" d="M28.5889,-177.922C26.7124,-153.701 25.9626,-121.78 31,-94 33.2232,-81.7399 37.6601,-68.7704 42.1209,-57.7358"/>
<polygon fill="none" stroke="darkgreen" points="25.1236,-178.474 29.4808,-188.131 32.097,-177.864 25.1236,-178.474"/>
</g>
<!-- Node4 -->
<g id="node6" class="node"><title>Node4</title>
<a xlink:href="../../dd/de0/class_c.html" target="_top" xlink:title="{C\n||}">
<polygon fill="none" stroke="black" points="40.5,-94.5 40.5,-151.5 69.5,-151.5 69.5,-94.5 40.5,-94.5"/>
<text text-anchor="middle" x="55" y="-139.5" font-family="Helvetica,sans-Serif" font-size="10.00">C</text>
<polyline fill="none" stroke="black" points="40.5,-132.5 69.5,-132.5 "/>
<text text-anchor="middle" x="55" y="-120.5" font-family="Helvetica,sans-Serif" font-size="10.00"> </text>
<polyline fill="none" stroke="black" points="40.5,-113.5 69.5,-113.5 "/>
<text text-anchor="middle" x="55" y="-101.5" font-family="Helvetica,sans-Serif" font-size="10.00"> </text>
</a>
</g>
<!-- Node2&#45;&gt;Node4 -->
<g id="edge8" class="edge"><title>Node2&#45;&gt;Node4</title>
<path fill="none" stroke="#8b1a1a" d="M41.9674,-178.5C44.1205,-169.496 46.3812,-160.042 48.4039,-151.584"/>
<polygon fill="none" stroke="#8b1a1a" points="38.5225,-177.857 39.6007,-188.397 45.3306,-179.485 38.5225,-177.857"/>
</g>
<!-- Node3 -->
<g id="node4" class="node"><title>Node3</title>
<a xlink:href="../../df/d95/class_b.html" target="_top" xlink:title="{B\n|+ m_friend\l|}">
<polygon fill="none" stroke="black" points="87.5,-94.5 87.5,-151.5 150.5,-151.5 150.5,-94.5 87.5,-94.5"/>
<text text-anchor="middle" x="119" y="-139.5" font-family="Helvetica,sans-Serif" font-size="10.00">B</text>
<polyline fill="none" stroke="black" points="87.5,-132.5 150.5,-132.5 "/>
<text text-anchor="start" x="95.5" y="-120.5" font-family="Helvetica,sans-Serif" font-size="10.00">+ m_friend</text>
<polyline fill="none" stroke="black" points="87.5,-113.5 150.5,-113.5 "/>
<text text-anchor="middle" x="119" y="-101.5" font-family="Helvetica,sans-Serif" font-size="10.00"> </text>
</a>
</g>
<!-- Node3&#45;&gt;Node1 -->
<g id="edge4" class="edge"><title>Node3&#45;&gt;Node1</title>
<path fill="none" stroke="#8b1a1a" d="M93.9203,-85.9479C87.3586,-76.5155 80.3892,-66.497 74.1886,-57.5836"/>
<polygon fill="none" stroke="#8b1a1a" points="91.214,-88.1866 99.7979,-94.397 96.9604,-84.1892 91.214,-88.1866"/>
</g>
<!-- Node4&#45;&gt;Node1 -->
<g id="edge6" class="edge"><title>Node4&#45;&gt;Node1</title>
<path fill="none" stroke="midnightblue" d="M55,-84.2092C55,-75.2929 55,-65.9513 55,-57.5836"/>
<polygon fill="none" stroke="midnightblue" points="51.5001,-84.3969 55,-94.397 58.5001,-84.397 51.5001,-84.3969"/>
</g>
</g>
</svg>
