<?xml version="1.0" encoding="UTF-8" standalone="no"?>
<!DOCTYPE svg PUBLIC "-//W3C//DTD SVG 1.1//EN"
 "http://www.w3.org/Graphics/SVG/1.1/DTD/svg11.dtd">
<!-- Generated by graphviz version 2.28.0 (20111029.1739)
 -->
<!-- Title: G Pages: 1 -->
<svg width="153pt" height="182pt"
 viewBox="0.00 0.00 153.00 182.00" xmlns="http://www.w3.org/2000/svg" xmlns:xlink="http://www.w3.org/1999/xlink">
<g id="graph1" class="graph" transform="scale(1 1) rotate(0) translate(4 178)">
<title>G</title>
<!-- Node1 -->
<g id="node1" class="node"><title>Node1</title>
<polygon fill="#bfbfbf" stroke="black" points="38.5,-116.5 38.5,-173.5 101.5,-173.5 101.5,-116.5 38.5,-116.5"/>
<text text-anchor="middle" x="70" y="-161.5" font-family="Helvetica,sans-Serif" font-size="10.00">B</text>
<polyline fill="none" stroke="black" points="38.5,-154.5 101.5,-154.5 "/>
<text text-anchor="start" x="46.5" y="-142.5" font-family="Helvetica,sans-Serif" font-size="10.00">+ m_friend</text>
<polyline fill="none" stroke="black" points="38.5,-135.5 101.5,-135.5 "/>
<text text-anchor="middle" x="70" y="-123.5" font-family="Helvetica,sans-Serif" font-size="10.00"> </text>
</g>
<!-- Node2 -->
<g id="node3" class="node"><title>Node2</title>
<a xlink:href="../../d0/dd0/class_d.html" target="_top" xlink:title="{D\n|+ m_child\l|}">
<polygon fill="none" stroke="black" points="-0.5,-11.5 -0.5,-68.5 58.5,-68.5 58.5,-11.5 -0.5,-11.5"/>
<text text-anchor="middle" x="29" y="-56.5" font-family="Helvetica,sans-Serif" font-size="10.00">D</text>
<polyline fill="none" stroke="black" points="-0.5,-49.5 58.5,-49.5 "/>
<text text-anchor="start" x="7.5" y="-37.5" font-family="Helvetica,sans-Serif" font-size="10.00">+ m_child</text>
<polyline fill="none" stroke="black" points="-0.5,-30.5 58.5,-30.5 "/>
<text text-anchor="middle" x="29" y="-18.5" font-family="Helvetica,sans-Serif" font-size="10.00"> </text>
</a>
</g>
<!-- Node1&#45;&gt;Node2 -->
<g id="edge2" class="edge"><title>Node1&#45;&gt;Node2</title>
<path fill="none" stroke="#8b1a1a" d="M55.2843,-107.031C50.2501,-94.3843 44.7089,-80.4639 40.0176,-68.6783"/>
<polygon fill="none" stroke="#8b1a1a" points="52.0625,-108.401 59.0128,-116.398 58.5662,-105.812 52.0625,-108.401"/>
</g>
<!-- Node3 -->
<g id="node5" class="node"><title>Node3</title>
<a xlink:href="../../da/d26/class_e.html" target="_top" xlink:title="{E\n|+ m_chilren\l# out\l|+ children()\l+ count()\l}">
<polygon fill="none" stroke="black" points="77,-0.5 77,-79.5 145,-79.5 145,-0.5 77,-0.5"/>
<text text-anchor="middle" x="111" y="-67.5" font-family="Helvetica,sans-Serif" font-size="10.00">E</text>
<polyline fill="none" stroke="black" points="77,-60.5 145,-60.5 "/>
<text text-anchor="start" x="85" y="-48.5" font-family="Helvetica,sans-Serif" font-size="10.00">+ m_chilren</text>
<text text-anchor="start" x="85" y="-37.5" font-family="Helvetica,sans-Serif" font-size="10.00"># out</text>
<polyline fill="none" stroke="black" points="77,-30.5 145,-30.5 "/>
<text text-anchor="start" x="85" y="-18.5" font-family="Helvetica,sans-Serif" font-size="10.00">+ children()</text>
<text text-anchor="start" x="85" y="-7.5" font-family="Helvetica,sans-Serif" font-size="10.00">+ count()</text>
</a>
</g>
<!-- Node1&#45;&gt;Node3 -->
<g id="edge4" class="edge"><title>Node1&#45;&gt;Node3</title>
<path fill="none" stroke="#8b1a1a" d="M84.7229,-107.013C88.2776,-98.0832 92.0847,-88.519 95.6666,-79.5205"/>
<polygon fill="none" stroke="#8b1a1a" points="81.4338,-105.812 80.9872,-116.398 87.9375,-108.401 81.4338,-105.812"/>
</g>
</g>
</svg>
