<?xml version="1.0" encoding="UTF-8" standalone="no"?>
<!DOCTYPE svg PUBLIC "-//W3C//DTD SVG 1.1//EN"
 "http://www.w3.org/Graphics/SVG/1.1/DTD/svg11.dtd">
<!-- Generated by graphviz version 2.28.0 (20111029.1739)
 -->
<!-- Title: G Pages: 1 -->
<svg width="256pt" height="141pt"
 viewBox="0.00 0.00 256.00 140.92" xmlns="http://www.w3.org/2000/svg" xmlns:xlink="http://www.w3.org/1999/xlink">
<g id="graph1" class="graph" transform="scale(1 1) rotate(0) translate(4 136.917)">
<title>G</title>
<!-- Node1 -->
<g id="node1" class="node"><title>Node1</title>
<polygon fill="#bfbfbf" stroke="black" points="111,-112.5 111,-131.5 197,-131.5 197,-112.5 111,-112.5"/>
<text text-anchor="middle" x="154" y="-119.5" font-family="Helvetica,sans-Serif" font-size="10.00">src/diagram_e.h</text>
</g>
<!-- Node1&#45;&gt;Node1 -->
<g id="edge12" class="edge"><title>Node1&#45;&gt;Node1</title>
<path fill="none" stroke="midnightblue" d="M180.017,-131.525C197.694,-134.308 215,-131.133 215,-122 215,-114.651 203.794,-111.16 190.206,-111.526"/>
<polygon fill="midnightblue" stroke="midnightblue" points="189.649,-108.063 180.017,-112.475 190.298,-115.033 189.649,-108.063"/>
</g>
<!-- Node2 -->
<g id="node3" class="node"><title>Node2</title>
<a xlink:href="../../df/d7c/diagram__d_8h.html" target="_top" xlink:title="diagram_d.h">
<polygon fill="none" stroke="black" points="44,-56.5 44,-75.5 114,-75.5 114,-56.5 44,-56.5"/>
<text text-anchor="middle" x="79" y="-63.5" font-family="Helvetica,sans-Serif" font-size="10.00">diagram_d.h</text>
</a>
</g>
<!-- Node1&#45;&gt;Node2 -->
<g id="edge2" class="edge"><title>Node1&#45;&gt;Node2</title>
<path fill="none" stroke="midnightblue" d="M141.95,-112.324C130.537,-104.107 113.169,-91.6017 99.5651,-81.8069"/>
<polygon fill="midnightblue" stroke="midnightblue" points="101.43,-78.8366 91.2693,-75.8339 97.3396,-84.5174 101.43,-78.8366"/>
</g>
<!-- Node5 -->
<g id="node9" class="node"><title>Node5</title>
<polygon fill="none" stroke="#bfbfbf" points="132,-56.5 132,-75.5 176,-75.5 176,-56.5 132,-56.5"/>
<text text-anchor="middle" x="154" y="-63.5" font-family="Helvetica,sans-Serif" font-size="10.00">vector</text>
</g>
<!-- Node1&#45;&gt;Node5 -->
<g id="edge8" class="edge"><title>Node1&#45;&gt;Node5</title>
<path fill="none" stroke="midnightblue" d="M154,-112.083C154,-105.006 154,-94.8611 154,-85.9865"/>
<polygon fill="midnightblue" stroke="midnightblue" points="157.5,-85.751 154,-75.7511 150.5,-85.7511 157.5,-85.751"/>
</g>
<!-- Node6 -->
<g id="node11" class="node"><title>Node6</title>
<polygon fill="none" stroke="#bfbfbf" points="194,-56.5 194,-75.5 248,-75.5 248,-56.5 194,-56.5"/>
<text text-anchor="middle" x="221" y="-63.5" font-family="Helvetica,sans-Serif" font-size="10.00">iostream</text>
</g>
<!-- Node1&#45;&gt;Node6 -->
<g id="edge10" class="edge"><title>Node1&#45;&gt;Node6</title>
<path fill="none" stroke="midnightblue" d="M164.765,-112.324C174.766,-104.263 189.887,-92.0765 201.93,-82.3695"/>
<polygon fill="midnightblue" stroke="midnightblue" points="204.45,-84.8343 210.039,-75.8339 200.057,-79.3841 204.45,-84.8343"/>
</g>
<!-- Node3 -->
<g id="node5" class="node"><title>Node3</title>
<a xlink:href="../../d9/dfb/diagram__a_8h.html" target="_top" xlink:title="diagram_a.h">
<polygon fill="none" stroke="black" points="0,-0.5 0,-19.5 70,-19.5 70,-0.5 0,-0.5"/>
<text text-anchor="middle" x="35" y="-7.5" font-family="Helvetica,sans-Serif" font-size="10.00">diagram_a.h</text>
</a>
</g>
<!-- Node2&#45;&gt;Node3 -->
<g id="edge4" class="edge"><title>Node2&#45;&gt;Node3</title>
<path fill="none" stroke="midnightblue" d="M71.7343,-56.083C65.4552,-48.3768 56.2124,-37.0333 48.5692,-27.6531"/>
<polygon fill="midnightblue" stroke="midnightblue" points="51.1606,-25.2926 42.1305,-19.7511 45.7339,-29.7143 51.1606,-25.2926"/>
</g>
<!-- Node4 -->
<g id="node7" class="node"><title>Node4</title>
<a xlink:href="../../d3/dea/diagram__b_8h.html" target="_top" xlink:title="diagram_b.h">
<polygon fill="none" stroke="black" points="88,-0.5 88,-19.5 158,-19.5 158,-0.5 88,-0.5"/>
<text text-anchor="middle" x="123" y="-7.5" font-family="Helvetica,sans-Serif" font-size="10.00">diagram_b.h</text>
</a>
</g>
<!-- Node2&#45;&gt;Node4 -->
<g id="edge6" class="edge"><title>Node2&#45;&gt;Node4</title>
<path fill="none" stroke="midnightblue" d="M86.2657,-56.083C92.5448,-48.3768 101.788,-37.0333 109.431,-27.6531"/>
<polygon fill="midnightblue" stroke="midnightblue" points="112.266,-29.7143 115.869,-19.7511 106.839,-25.2926 112.266,-29.7143"/>
</g>
</g>
</svg>
