<?xml version="1.0" encoding="UTF-8" standalone="no"?>
<!DOCTYPE svg PUBLIC "-//W3C//DTD SVG 1.1//EN"
 "http://www.w3.org/Graphics/SVG/1.1/DTD/svg11.dtd">
<!-- Generated by graphviz version 2.28.0 (20111029.1739)
 -->
<!-- Title: G Pages: 1 -->
<svg width="216pt" height="141pt"
 viewBox="0.00 0.00 216.00 140.92" xmlns="http://www.w3.org/2000/svg" xmlns:xlink="http://www.w3.org/1999/xlink">
<g id="graph1" class="graph" transform="scale(1 1) rotate(0) translate(4 136.917)">
<title>G</title>
<!-- Node1 -->
<g id="node1" class="node"><title>Node1</title>
<polygon fill="#bfbfbf" stroke="black" points="52,-113.417 52,-132.417 138,-132.417 138,-113.417 52,-113.417"/>
<text text-anchor="middle" x="95" y="-120.417" font-family="Helvetica,sans-Serif" font-size="10.00">src/diagram_a.h</text>
</g>
<!-- Node2 -->
<g id="node3" class="node"><title>Node2</title>
<a xlink:href="../../d3/d28/diagram__c_8h.html" target="_top" xlink:title="src/diagram_c.h">
<polygon fill="none" stroke="black" points="0,-57.4166 0,-76.4166 86,-76.4166 86,-57.4166 0,-57.4166"/>
<text text-anchor="middle" x="43" y="-64.4166" font-family="Helvetica,sans-Serif" font-size="10.00">src/diagram_c.h</text>
</a>
</g>
<!-- Node1&#45;&gt;Node2 -->
<g id="edge2" class="edge"><title>Node1&#45;&gt;Node2</title>
<path fill="none" stroke="midnightblue" d="M79.3206,-105.634C70.1553,-96.1163 58.9474,-84.4774 51.427,-76.6676"/>
<polygon fill="midnightblue" stroke="midnightblue" points="76.9557,-108.224 86.4133,-113 81.9979,-103.369 76.9557,-108.224"/>
</g>
<!-- Node3 -->
<g id="node5" class="node"><title>Node3</title>
<a xlink:href="../../df/d7c/diagram__d_8h.html" target="_top" xlink:title="src/diagram_d.h">
<polygon fill="none" stroke="black" points="104,-57.4166 104,-76.4166 190,-76.4166 190,-57.4166 104,-57.4166"/>
<text text-anchor="middle" x="147" y="-64.4166" font-family="Helvetica,sans-Serif" font-size="10.00">src/diagram_d.h</text>
</a>
</g>
<!-- Node1&#45;&gt;Node3 -->
<g id="edge4" class="edge"><title>Node1&#45;&gt;Node3</title>
<path fill="none" stroke="midnightblue" d="M110.679,-105.634C119.845,-96.1163 131.053,-84.4774 138.573,-76.6676"/>
<polygon fill="midnightblue" stroke="midnightblue" points="108.002,-103.369 103.587,-113 113.044,-108.224 108.002,-103.369"/>
</g>
<!-- Node4 -->
<g id="node7" class="node"><title>Node4</title>
<a xlink:href="../../df/d55/diagram__e_8h.html" target="_top" xlink:title="src/diagram_e.h">
<polygon fill="none" stroke="black" points="104,-1.41656 104,-20.4166 190,-20.4166 190,-1.41656 104,-1.41656"/>
<text text-anchor="middle" x="147" y="-8.41656" font-family="Helvetica,sans-Serif" font-size="10.00">src/diagram_e.h</text>
</a>
</g>
<!-- Node3&#45;&gt;Node4 -->
<g id="edge6" class="edge"><title>Node3&#45;&gt;Node4</title>
<path fill="none" stroke="midnightblue" d="M147,-46.7211C147,-37.8268 147,-27.6964 147,-20.6676"/>
<polygon fill="midnightblue" stroke="midnightblue" points="143.5,-46.9995 147,-56.9996 150.5,-46.9996 143.5,-46.9995"/>
</g>
<!-- Node4&#45;&gt;Node4 -->
<g id="edge8" class="edge"><title>Node4&#45;&gt;Node4</title>
<path fill="none" stroke="midnightblue" d="M183.206,-21.3905C196.794,-21.7569 208,-18.2656 208,-10.9166 208,-1.78375 190.694,1.39133 173.017,-1.39133"/>
<polygon fill="midnightblue" stroke="midnightblue" points="183.298,-17.884 173.017,-20.4418 182.649,-24.8538 183.298,-17.884"/>
</g>
</g>
</svg>
