<?xml version="1.0" encoding="UTF-8" standalone="no"?>
<!DOCTYPE svg PUBLIC "-//W3C//DTD SVG 1.1//EN"
 "http://www.w3.org/Graphics/SVG/1.1/DTD/svg11.dtd">
<!-- Generated by graphviz version 2.28.0 (20111029.1739)
 -->
<!-- Title: G Pages: 1 -->
<svg width="170pt" height="123pt"
 viewBox="0.00 0.00 170.00 123.00" xmlns="http://www.w3.org/2000/svg" xmlns:xlink="http://www.w3.org/1999/xlink">
<g id="graph1" class="graph" transform="scale(1 1) rotate(0) translate(4 119)">
<title>G</title>
<!-- Node1 -->
<g id="node1" class="node"><title>Node1</title>
<a xlink:href="d8/d4f/class_a.html" target="_top" xlink:title="A">
<polygon fill="none" stroke="black" points="0.5,-57.5 0.5,-76.5 29.5,-76.5 29.5,-57.5 0.5,-57.5"/>
<text text-anchor="middle" x="15" y="-64.5" font-family="Helvetica,sans-Serif" font-size="10.00">A</text>
</a>
</g>
<!-- Node2 -->
<g id="node3" class="node"><title>Node2</title>
<a xlink:href="dd/de0/class_c.html" target="_top" xlink:title="C">
<polygon fill="none" stroke="black" points="66.5,-95.5 66.5,-114.5 95.5,-114.5 95.5,-95.5 66.5,-95.5"/>
<text text-anchor="middle" x="81" y="-102.5" font-family="Helvetica,sans-Serif" font-size="10.00">C</text>
</a>
</g>
<!-- Node1&#45;&gt;Node2 -->
<g id="edge2" class="edge"><title>Node1&#45;&gt;Node2</title>
<path fill="none" stroke="#8b1a1a" d="M38.3897,-80.2939C47.7435,-85.8477 58.3049,-92.1185 66.4468,-96.9528"/>
<polygon fill="#8b1a1a" stroke="#8b1a1a" points="39.9582,-77.1548 29.5728,-75.0588 36.3844,-83.1738 39.9582,-77.1548"/>
</g>
<!-- Node3 -->
<g id="node5" class="node"><title>Node3</title>
<a xlink:href="d0/dd0/class_d.html" target="_top" xlink:title="D">
<polygon fill="none" stroke="black" points="132.5,-57.5 132.5,-76.5 161.5,-76.5 161.5,-57.5 132.5,-57.5"/>
<text text-anchor="middle" x="147" y="-64.5" font-family="Helvetica,sans-Serif" font-size="10.00">D</text>
</a>
</g>
<!-- Node1&#45;&gt;Node3 -->
<g id="edge6" class="edge"><title>Node1&#45;&gt;Node3</title>
<path fill="none" stroke="darkgreen" d="M40.1053,-67C67.2002,-67 110.26,-67 132.188,-67"/>
<polygon fill="darkgreen" stroke="darkgreen" points="39.9123,-63.5001 29.9123,-67 39.9122,-70.5001 39.9123,-63.5001"/>
</g>
<!-- Node4 -->
<g id="node8" class="node"><title>Node4</title>
<a xlink:href="da/d26/class_e.html" target="_top" xlink:title="E">
<polygon fill="none" stroke="black" points="66.5,-19.5 66.5,-38.5 95.5,-38.5 95.5,-19.5 66.5,-19.5"/>
<text text-anchor="middle" x="81" y="-26.5" font-family="Helvetica,sans-Serif" font-size="10.00">E</text>
</a>
</g>
<!-- Node1&#45;&gt;Node4 -->
<g id="edge8" class="edge"><title>Node1&#45;&gt;Node4</title>
<path fill="none" stroke="darkgreen" d="M38.3897,-53.7061C47.7435,-48.1523 58.3049,-41.8815 66.4468,-37.0472"/>
<polygon fill="darkgreen" stroke="darkgreen" points="36.3844,-50.8262 29.5728,-58.9412 39.9582,-56.8452 36.3844,-50.8262"/>
</g>
<!-- Node2&#45;&gt;Node3 -->
<g id="edge4" class="edge"><title>Node2&#45;&gt;Node3</title>
<path fill="none" stroke="midnightblue" d="M104.39,-91.7061C113.744,-86.1523 124.305,-79.8815 132.447,-75.0472"/>
<polygon fill="midnightblue" stroke="midnightblue" points="102.384,-88.8262 95.5728,-96.9412 105.958,-94.8452 102.384,-88.8262"/>
</g>
<!-- Node5 -->
<g id="node9" class="node"><title>Node5</title>
<a xlink:href="df/d95/class_b.html" target="_top" xlink:title="B">
<polygon fill="none" stroke="black" points="0.5,-0.5 0.5,-19.5 29.5,-19.5 29.5,-0.5 0.5,-0.5"/>
<text text-anchor="middle" x="15" y="-7.5" font-family="Helvetica,sans-Serif" font-size="10.00">B</text>
</a>
</g>
<!-- Node5&#45;&gt;Node3 -->
<g id="edge10" class="edge"><title>Node5&#45;&gt;Node3</title>
<path fill="none" stroke="#8b1a1a" d="M39.6757,-5.0304C56.1968,-2.72271 78.3575,-2.00757 96,-10 117.583,-19.7775 133.534,-43.9853 141.103,-57.497"/>
<polygon fill="#8b1a1a" stroke="#8b1a1a" points="39.0188,-1.59164 29.7376,-6.70134 40.1795,-8.49475 39.0188,-1.59164"/>
</g>
<!-- Node5&#45;&gt;Node4 -->
<g id="edge12" class="edge"><title>Node5&#45;&gt;Node4</title>
<path fill="none" stroke="#8b1a1a" d="M39.2701,-16.9083C48.4013,-19.6191 58.5594,-22.6348 66.4468,-24.9764"/>
<polygon fill="#8b1a1a" stroke="#8b1a1a" points="40.1553,-13.5202 29.5728,-14.0294 38.1631,-20.2307 40.1553,-13.5202"/>
</g>
</g>
</svg>
