<?xml version="1.0" encoding="UTF-8" standalone="no"?>
<!DOCTYPE svg PUBLIC "-//W3C//DTD SVG 1.1//EN"
 "http://www.w3.org/Graphics/SVG/1.1/DTD/svg11.dtd">
<!-- Generated by graphviz version 2.28.0 (20111029.1739)
 -->
<!-- Title: G Pages: 1 -->
<svg width="74pt" height="254pt"
 viewBox="0.00 0.00 74.00 254.00" xmlns="http://www.w3.org/2000/svg" xmlns:xlink="http://www.w3.org/1999/xlink">
<g id="graph1" class="graph" transform="scale(1 1) rotate(0) translate(4 250)">
<title>G</title>
<!-- Node1 -->
<g id="node1" class="node"><title>Node1</title>
<polygon fill="#bfbfbf" stroke="black" points="18.5,-94.5 18.5,-151.5 47.5,-151.5 47.5,-94.5 18.5,-94.5"/>
<text text-anchor="middle" x="33" y="-139.5" font-family="Helvetica,sans-Serif" font-size="10.00">C</text>
<polyline fill="none" stroke="black" points="18.5,-132.5 47.5,-132.5 "/>
<text text-anchor="middle" x="33" y="-120.5" font-family="Helvetica,sans-Serif" font-size="10.00"> </text>
<polyline fill="none" stroke="black" points="18.5,-113.5 47.5,-113.5 "/>
<text text-anchor="middle" x="33" y="-101.5" font-family="Helvetica,sans-Serif" font-size="10.00"> </text>
</g>
<!-- Node3 -->
<g id="node5" class="node"><title>Node3</title>
<a xlink:href="../../d0/dd0/class_d.html" target="_top" xlink:title="{D\n|+ m_child\l|}">
<polygon fill="none" stroke="black" points="3.5,-0.5 3.5,-57.5 62.5,-57.5 62.5,-0.5 3.5,-0.5"/>
<text text-anchor="middle" x="33" y="-45.5" font-family="Helvetica,sans-Serif" font-size="10.00">D</text>
<polyline fill="none" stroke="black" points="3.5,-38.5 62.5,-38.5 "/>
<text text-anchor="start" x="11.5" y="-26.5" font-family="Helvetica,sans-Serif" font-size="10.00">+ m_child</text>
<polyline fill="none" stroke="black" points="3.5,-19.5 62.5,-19.5 "/>
<text text-anchor="middle" x="33" y="-7.5" font-family="Helvetica,sans-Serif" font-size="10.00"> </text>
</a>
</g>
<!-- Node1&#45;&gt;Node3 -->
<g id="edge4" class="edge"><title>Node1&#45;&gt;Node3</title>
<path fill="none" stroke="midnightblue" d="M33,-84.2092C33,-75.2929 33,-65.9513 33,-57.5836"/>
<polygon fill="none" stroke="midnightblue" points="29.5001,-84.3969 33,-94.397 36.5001,-84.397 29.5001,-84.3969"/>
</g>
<!-- Node2 -->
<g id="node2" class="node"><title>Node2</title>
<a xlink:href="../../d8/d4f/class_a.html" target="_top" xlink:title="{A\n|+ m_parent\l|}">
<polygon fill="none" stroke="black" points="0,-188.5 0,-245.5 66,-245.5 66,-188.5 0,-188.5"/>
<text text-anchor="middle" x="33" y="-233.5" font-family="Helvetica,sans-Serif" font-size="10.00">A</text>
<polyline fill="none" stroke="black" points="0,-226.5 66,-226.5 "/>
<text text-anchor="start" x="8" y="-214.5" font-family="Helvetica,sans-Serif" font-size="10.00">+ m_parent</text>
<polyline fill="none" stroke="black" points="0,-207.5 66,-207.5 "/>
<text text-anchor="middle" x="33" y="-195.5" font-family="Helvetica,sans-Serif" font-size="10.00"> </text>
</a>
</g>
<!-- Node2&#45;&gt;Node1 -->
<g id="edge2" class="edge"><title>Node2&#45;&gt;Node1</title>
<path fill="none" stroke="#8b1a1a" d="M33,-178.209C33,-169.293 33,-159.951 33,-151.584"/>
<polygon fill="none" stroke="#8b1a1a" points="29.5001,-178.397 33,-188.397 36.5001,-178.397 29.5001,-178.397"/>
</g>
</g>
</svg>
