<?xml version="1.0" encoding="UTF-8" standalone="no"?>
<!DOCTYPE svg PUBLIC "-//W3C//DTD SVG 1.1//EN"
 "http://www.w3.org/Graphics/SVG/1.1/DTD/svg11.dtd">
<!-- Generated by graphviz version 2.28.0 (20111029.1739)
 -->
<!-- Title: G Pages: 1 -->
<svg width="136pt" height="172pt"
 viewBox="0.00 0.00 136.00 172.00" xmlns="http://www.w3.org/2000/svg" xmlns:xlink="http://www.w3.org/1999/xlink">
<g id="graph1" class="graph" transform="scale(1 1) rotate(0) translate(4 168)">
<title>G</title>
<!-- Node1 -->
<g id="node1" class="node"><title>Node1</title>
<polygon fill="#bfbfbf" stroke="black" points="1.5,-0.5 1.5,-57.5 64.5,-57.5 64.5,-0.5 1.5,-0.5"/>
<text text-anchor="middle" x="33" y="-45.5" font-family="Helvetica,sans-Serif" font-size="10.00">B</text>
<polyline fill="none" stroke="black" points="1.5,-38.5 64.5,-38.5 "/>
<text text-anchor="start" x="9.5" y="-26.5" font-family="Helvetica,sans-Serif" font-size="10.00">+ m_friend</text>
<polyline fill="none" stroke="black" points="1.5,-19.5 64.5,-19.5 "/>
<text text-anchor="middle" x="33" y="-7.5" font-family="Helvetica,sans-Serif" font-size="10.00"> </text>
</g>
<!-- Node2 -->
<g id="node2" class="node"><title>Node2</title>
<a xlink:href="../../d8/d4f/class_a.html" target="_top" xlink:title="{A\n|+ m_parent\l|}">
<polygon fill="none" stroke="black" points="0,-106.5 0,-163.5 66,-163.5 66,-106.5 0,-106.5"/>
<text text-anchor="middle" x="33" y="-151.5" font-family="Helvetica,sans-Serif" font-size="10.00">A</text>
<polyline fill="none" stroke="black" points="0,-144.5 66,-144.5 "/>
<text text-anchor="start" x="8" y="-132.5" font-family="Helvetica,sans-Serif" font-size="10.00">+ m_parent</text>
<polyline fill="none" stroke="black" points="0,-125.5 66,-125.5 "/>
<text text-anchor="middle" x="33" y="-113.5" font-family="Helvetica,sans-Serif" font-size="10.00"> </text>
</a>
</g>
<!-- Node2&#45;&gt;Node1 -->
<g id="edge2" class="edge"><title>Node2&#45;&gt;Node1</title>
<path fill="none" stroke="#404040" d="M33,-106.403C33,-95.2373 33,-82.1304 33,-69.9556"/>
<polygon fill="none" stroke="#404040" points="33.0001,-69.726 29,-63.726 33,-57.726 37,-63.726 33.0001,-69.726"/>
<text text-anchor="middle" x="53.5" y="-79.5" font-family="Helvetica,sans-Serif" font-size="10.00"> m_friend</text>
</g>
<!-- Node2&#45;&gt;Node2 -->
<g id="edge4" class="edge"><title>Node2&#45;&gt;Node2</title>
<path fill="none" stroke="#404040" d="M66.3545,-144.729C76.2782,-144.438 84,-141.195 84,-135 84,-131.709 81.8207,-129.251 78.2897,-127.626"/>
<polygon fill="none" stroke="#404040" points="78.1276,-127.594 71.4668,-130.357 66.3545,-125.271 73.0152,-122.508 78.1276,-127.594"/>
<text text-anchor="middle" x="106" y="-132.5" font-family="Helvetica,sans-Serif" font-size="10.00"> m_parent</text>
</g>
</g>
</svg>
