<?xml version="1.0" encoding="UTF-8" standalone="no"?>
<!DOCTYPE svg PUBLIC "-//W3C//DTD SVG 1.1//EN"
 "http://www.w3.org/Graphics/SVG/1.1/DTD/svg11.dtd">
<!-- Generated by graphviz version 2.28.0 (20111029.1739)
 -->
<!-- Title: G Pages: 1 -->
<svg width="275pt" height="300pt"
 viewBox="0.00 0.00 275.00 300.00" xmlns="http://www.w3.org/2000/svg" xmlns:xlink="http://www.w3.org/1999/xlink">
<g id="graph1" class="graph" transform="scale(1 1) rotate(0) translate(4 296)">
<title>G</title>
<!-- Node1 -->
<g id="node1" class="node"><title>Node1</title>
<polygon fill="#bfbfbf" stroke="black" points="96,-0.5 96,-79.5 164,-79.5 164,-0.5 96,-0.5"/>
<text text-anchor="middle" x="130" y="-67.5" font-family="Helvetica,sans-Serif" font-size="10.00">E</text>
<polyline fill="none" stroke="black" points="96,-60.5 164,-60.5 "/>
<text text-anchor="start" x="104" y="-48.5" font-family="Helvetica,sans-Serif" font-size="10.00">+ m_chilren</text>
<text text-anchor="start" x="104" y="-37.5" font-family="Helvetica,sans-Serif" font-size="10.00"># out</text>
<polyline fill="none" stroke="black" points="96,-30.5 164,-30.5 "/>
<text text-anchor="start" x="104" y="-18.5" font-family="Helvetica,sans-Serif" font-size="10.00">+ children()</text>
<text text-anchor="start" x="104" y="-7.5" font-family="Helvetica,sans-Serif" font-size="10.00">+ count()</text>
</g>
<!-- Node2 -->
<g id="node2" class="node"><title>Node2</title>
<a xlink:href="../../d8/d4f/class_a.html" target="_top" xlink:title="{A\n|+ m_parent\l|}">
<polygon fill="none" stroke="black" points="0,-234.5 0,-291.5 66,-291.5 66,-234.5 0,-234.5"/>
<text text-anchor="middle" x="33" y="-279.5" font-family="Helvetica,sans-Serif" font-size="10.00">A</text>
<polyline fill="none" stroke="black" points="0,-272.5 66,-272.5 "/>
<text text-anchor="start" x="8" y="-260.5" font-family="Helvetica,sans-Serif" font-size="10.00">+ m_parent</text>
<polyline fill="none" stroke="black" points="0,-253.5 66,-253.5 "/>
<text text-anchor="middle" x="33" y="-241.5" font-family="Helvetica,sans-Serif" font-size="10.00"> </text>
</a>
</g>
<!-- Node2&#45;&gt;Node1 -->
<g id="edge2" class="edge"><title>Node2&#45;&gt;Node1</title>
<path fill="none" stroke="darkgreen" d="M23.2164,-224.268C17.9937,-196.393 15.1528,-158.204 29,-128 42.6957,-98.1266 72.2732,-74.626 95.8998,-59.6198"/>
<polygon fill="none" stroke="darkgreen" points="19.8595,-225.32 25.3048,-234.408 26.7156,-223.908 19.8595,-225.32"/>
</g>
<!-- Node2&#45;&gt;Node2 -->
<g id="edge4" class="edge"><title>Node2&#45;&gt;Node2</title>
<path fill="none" stroke="#404040" d="M66.3545,-272.729C76.2782,-272.438 84,-269.195 84,-263 84,-259.709 81.8207,-257.251 78.2897,-255.626"/>
<polygon fill="none" stroke="#404040" points="78.1276,-255.594 71.4668,-258.357 66.3545,-253.271 73.0152,-250.508 78.1276,-255.594"/>
<text text-anchor="middle" x="106" y="-260.5" font-family="Helvetica,sans-Serif" font-size="10.00"> m_parent</text>
</g>
<!-- Node3 -->
<g id="node5" class="node"><title>Node3</title>
<a xlink:href="../../df/d95/class_b.html" target="_top" xlink:title="{B\n|+ m_friend\l|}">
<polygon fill="none" stroke="black" points="38.5,-128.5 38.5,-185.5 101.5,-185.5 101.5,-128.5 38.5,-128.5"/>
<text text-anchor="middle" x="70" y="-173.5" font-family="Helvetica,sans-Serif" font-size="10.00">B</text>
<polyline fill="none" stroke="black" points="38.5,-166.5 101.5,-166.5 "/>
<text text-anchor="start" x="46.5" y="-154.5" font-family="Helvetica,sans-Serif" font-size="10.00">+ m_friend</text>
<polyline fill="none" stroke="black" points="38.5,-147.5 101.5,-147.5 "/>
<text text-anchor="middle" x="70" y="-135.5" font-family="Helvetica,sans-Serif" font-size="10.00"> </text>
</a>
</g>
<!-- Node2&#45;&gt;Node3 -->
<g id="edge8" class="edge"><title>Node2&#45;&gt;Node3</title>
<path fill="none" stroke="#404040" d="M42.8182,-234.403C46.8742,-223.002 51.6503,-209.578 56.0581,-197.188"/>
<polygon fill="none" stroke="#404040" points="56.1136,-197.032 54.3562,-190.038 60.1359,-185.726 61.8934,-192.72 56.1136,-197.032"/>
<text text-anchor="middle" x="73.5" y="-207.5" font-family="Helvetica,sans-Serif" font-size="10.00"> m_friend</text>
</g>
<!-- Node3&#45;&gt;Node1 -->
<g id="edge6" class="edge"><title>Node3&#45;&gt;Node1</title>
<path fill="none" stroke="#8b1a1a" d="M89.0321,-119.522C95.6647,-106.809 103.127,-92.5068 109.847,-79.6258"/>
<polygon fill="none" stroke="#8b1a1a" points="85.8942,-117.97 84.3715,-128.455 92.1003,-121.208 85.8942,-117.97"/>
</g>
<!-- Node4 -->
<g id="node8" class="node"><title>Node4</title>
<polygon fill="none" stroke="#bfbfbf" points="119.5,-128.5 119.5,-185.5 180.5,-185.5 180.5,-128.5 119.5,-128.5"/>
<text text-anchor="middle" x="150" y="-173.5" font-family="Helvetica,sans-Serif" font-size="10.00">iostream *</text>
<polyline fill="none" stroke="#bfbfbf" points="119.5,-166.5 180.5,-166.5 "/>
<text text-anchor="middle" x="150" y="-154.5" font-family="Helvetica,sans-Serif" font-size="10.00"> </text>
<polyline fill="none" stroke="#bfbfbf" points="119.5,-147.5 180.5,-147.5 "/>
<text text-anchor="middle" x="150" y="-135.5" font-family="Helvetica,sans-Serif" font-size="10.00"> </text>
</g>
<!-- Node4&#45;&gt;Node1 -->
<g id="edge10" class="edge"><title>Node4&#45;&gt;Node1</title>
<path fill="none" stroke="#404040" d="M145.21,-128.455C143.283,-117.376 140.998,-104.24 138.793,-91.5604"/>
<polygon fill="none" stroke="#404040" points="138.774,-91.4483 133.805,-86.2224 136.718,-79.6258 141.686,-84.8516 138.774,-91.4483"/>
<text text-anchor="middle" x="150.5" y="-101.5" font-family="Helvetica,sans-Serif" font-size="10.00"> out</text>
</g>
<!-- Node5 -->
<g id="node10" class="node"><title>Node5</title>
<polygon fill="none" stroke="#bfbfbf" points="198.5,-128.5 198.5,-185.5 267.5,-185.5 267.5,-128.5 198.5,-128.5"/>
<text text-anchor="middle" x="233" y="-173.5" font-family="Helvetica,sans-Serif" font-size="10.00">vector&lt; C &gt;</text>
<polyline fill="none" stroke="#bfbfbf" points="198.5,-166.5 267.5,-166.5 "/>
<text text-anchor="middle" x="233" y="-154.5" font-family="Helvetica,sans-Serif" font-size="10.00"> </text>
<polyline fill="none" stroke="#bfbfbf" points="198.5,-147.5 267.5,-147.5 "/>
<text text-anchor="middle" x="233" y="-135.5" font-family="Helvetica,sans-Serif" font-size="10.00"> </text>
</g>
<!-- Node5&#45;&gt;Node1 -->
<g id="edge12" class="edge"><title>Node5&#45;&gt;Node1</title>
<path fill="none" stroke="#404040" d="M208.329,-128.455C197.594,-116.469 184.701,-102.074 172.503,-88.4552"/>
<polygon fill="none" stroke="#404040" points="172.211,-88.1286 165.228,-86.3279 164.205,-79.1897 171.187,-80.9905 172.211,-88.1286"/>
<text text-anchor="middle" x="214" y="-101.5" font-family="Helvetica,sans-Serif" font-size="10.00"> m_chilren</text>
</g>
</g>
</svg>
