<?xml version="1.0" encoding="UTF-8" standalone="no"?>
<!DOCTYPE svg PUBLIC "-//W3C//DTD SVG 1.1//EN"
 "http://www.w3.org/Graphics/SVG/1.1/DTD/svg11.dtd">
<!-- Generated by graphviz version 2.28.0 (20111029.1739)
 -->
<!-- Title: G Pages: 1 -->
<svg width="150pt" height="278pt"
 viewBox="0.00 0.00 149.60 278.00" xmlns="http://www.w3.org/2000/svg" xmlns:xlink="http://www.w3.org/1999/xlink">
<g id="graph1" class="graph" transform="scale(1 1) rotate(0) translate(4 274)">
<title>G</title>
<!-- Node1 -->
<g id="node1" class="node"><title>Node1</title>
<polygon fill="#bfbfbf" stroke="black" points="32.1019,-0.5 32.1019,-57.5 91.1019,-57.5 91.1019,-0.5 32.1019,-0.5"/>
<text text-anchor="middle" x="61.6019" y="-45.5" font-family="Helvetica,sans-Serif" font-size="10.00">D</text>
<polyline fill="none" stroke="black" points="32.1019,-38.5 91.1019,-38.5 "/>
<text text-anchor="start" x="40.1019" y="-26.5" font-family="Helvetica,sans-Serif" font-size="10.00">+ m_child</text>
<polyline fill="none" stroke="black" points="32.1019,-19.5 91.1019,-19.5 "/>
<text text-anchor="middle" x="61.6019" y="-7.5" font-family="Helvetica,sans-Serif" font-size="10.00"> </text>
</g>
<!-- Node2 -->
<g id="node2" class="node"><title>Node2</title>
<a xlink:href="../../d8/d4f/class_a.html" target="_top" xlink:title="{A\n|+ m_parent\l|}">
<polygon fill="none" stroke="black" points="13.6019,-212.5 13.6019,-269.5 79.6019,-269.5 79.6019,-212.5 13.6019,-212.5"/>
<text text-anchor="middle" x="46.6019" y="-257.5" font-family="Helvetica,sans-Serif" font-size="10.00">A</text>
<polyline fill="none" stroke="black" points="13.6019,-250.5 79.6019,-250.5 "/>
<text text-anchor="start" x="21.6019" y="-238.5" font-family="Helvetica,sans-Serif" font-size="10.00">+ m_parent</text>
<polyline fill="none" stroke="black" points="13.6019,-231.5 79.6019,-231.5 "/>
<text text-anchor="middle" x="46.6019" y="-219.5" font-family="Helvetica,sans-Serif" font-size="10.00"> </text>
</a>
</g>
<!-- Node2&#45;&gt;Node1 -->
<g id="edge2" class="edge"><title>Node2&#45;&gt;Node1</title>
<path fill="none" stroke="darkgreen" d="M22.1058,-203.334C15.3921,-191.314 9.0243,-177.552 5.60189,-164 -0.709749,-139.007 -2.44607,-130.489 5.60189,-106 11.4351,-88.2499 23.1781,-71.2375 34.4107,-57.8256"/>
<polygon fill="none" stroke="darkgreen" points="19.1947,-205.29 27.2643,-212.155 25.2373,-201.756 19.1947,-205.29"/>
</g>
<!-- Node2&#45;&gt;Node2 -->
<g id="edge4" class="edge"><title>Node2&#45;&gt;Node2</title>
<path fill="none" stroke="#404040" d="M79.9564,-250.729C89.8801,-250.438 97.6019,-247.195 97.6019,-241 97.6019,-237.709 95.4226,-235.251 91.8916,-233.626"/>
<polygon fill="none" stroke="#404040" points="91.7295,-233.594 85.0687,-236.357 79.9564,-231.271 86.6171,-228.508 91.7295,-233.594"/>
<text text-anchor="middle" x="119.602" y="-238.5" font-family="Helvetica,sans-Serif" font-size="10.00"> m_parent</text>
</g>
<!-- Node3 -->
<g id="node5" class="node"><title>Node3</title>
<a xlink:href="../../df/d95/class_b.html" target="_top" xlink:title="{B\n|+ m_friend\l|}">
<polygon fill="none" stroke="black" points="15.1019,-106.5 15.1019,-163.5 78.1019,-163.5 78.1019,-106.5 15.1019,-106.5"/>
<text text-anchor="middle" x="46.6019" y="-151.5" font-family="Helvetica,sans-Serif" font-size="10.00">B</text>
<polyline fill="none" stroke="black" points="15.1019,-144.5 78.1019,-144.5 "/>
<text text-anchor="start" x="23.1019" y="-132.5" font-family="Helvetica,sans-Serif" font-size="10.00">+ m_friend</text>
<polyline fill="none" stroke="black" points="15.1019,-125.5 78.1019,-125.5 "/>
<text text-anchor="middle" x="46.6019" y="-113.5" font-family="Helvetica,sans-Serif" font-size="10.00"> </text>
</a>
</g>
<!-- Node2&#45;&gt;Node3 -->
<g id="edge8" class="edge"><title>Node2&#45;&gt;Node3</title>
<path fill="none" stroke="#404040" d="M46.6019,-212.403C46.6019,-201.237 46.6019,-188.13 46.6019,-175.956"/>
<polygon fill="none" stroke="#404040" points="46.602,-175.726 42.6019,-169.726 46.6019,-163.726 50.6019,-169.726 46.602,-175.726"/>
<text text-anchor="middle" x="67.1019" y="-185.5" font-family="Helvetica,sans-Serif" font-size="10.00"> m_friend</text>
</g>
<!-- Node4 -->
<g id="node8" class="node"><title>Node4</title>
<a xlink:href="../../dd/de0/class_c.html" target="_top" xlink:title="{C\n||}">
<polygon fill="none" stroke="black" points="96.1019,-106.5 96.1019,-163.5 125.102,-163.5 125.102,-106.5 96.1019,-106.5"/>
<text text-anchor="middle" x="110.602" y="-151.5" font-family="Helvetica,sans-Serif" font-size="10.00">C</text>
<polyline fill="none" stroke="black" points="96.1019,-144.5 125.102,-144.5 "/>
<text text-anchor="middle" x="110.602" y="-132.5" font-family="Helvetica,sans-Serif" font-size="10.00"> </text>
<polyline fill="none" stroke="black" points="96.1019,-125.5 125.102,-125.5 "/>
<text text-anchor="middle" x="110.602" y="-113.5" font-family="Helvetica,sans-Serif" font-size="10.00"> </text>
</a>
</g>
<!-- Node2&#45;&gt;Node4 -->
<g id="edge12" class="edge"><title>Node2&#45;&gt;Node4</title>
<path fill="none" stroke="#8b1a1a" d="M84.1972,-204.55C86.9008,-201.136 89.4174,-197.599 91.6019,-194 97.2094,-184.761 101.365,-173.676 104.335,-163.684"/>
<polygon fill="none" stroke="#8b1a1a" points="81.4427,-202.386 77.6179,-212.267 86.7693,-206.928 81.4427,-202.386"/>
</g>
<!-- Node3&#45;&gt;Node1 -->
<g id="edge6" class="edge"><title>Node3&#45;&gt;Node1</title>
<path fill="none" stroke="#8b1a1a" d="M52.0137,-96.4783C53.8594,-83.6811 55.8885,-69.6127 57.6029,-57.726"/>
<polygon fill="none" stroke="#8b1a1a" points="48.5457,-96.0057 50.5822,-106.403 55.474,-97.005 48.5457,-96.0057"/>
</g>
<!-- Node4&#45;&gt;Node1 -->
<g id="edge10" class="edge"><title>Node4&#45;&gt;Node1</title>
<path fill="none" stroke="midnightblue" d="M93.2809,-97.237C87.1569,-84.2391 80.3764,-69.848 74.6651,-57.726"/>
<polygon fill="none" stroke="midnightblue" points="90.171,-98.8485 97.5994,-106.403 96.5034,-95.865 90.171,-98.8485"/>
</g>
<!-- Node4&#45;&gt;Node1 -->
<g id="edge14" class="edge"><title>Node4&#45;&gt;Node1</title>
<path fill="none" stroke="#404040" d="M100.48,-106.23C96.7154,-96.5409 92.2277,-85.675 87.6019,-76 86.4445,-73.5792 85.2121,-71.1111 83.937,-68.6381"/>
<polygon fill="none" stroke="#404040" points="83.8468,-68.4698 77.4854,-65.0739 78.1734,-57.8957 84.5348,-61.2916 83.8468,-68.4698"/>
<text text-anchor="middle" x="111.102" y="-79.5" font-family="Helvetica,sans-Serif" font-size="10.00"> m_child</text>
</g>
</g>
</svg>
