<?xml version="1.0" encoding="UTF-8" standalone="no"?>
<!DOCTYPE svg PUBLIC "-//W3C//DTD SVG 1.1//EN"
 "http://www.w3.org/Graphics/SVG/1.1/DTD/svg11.dtd">
<!-- Generated by graphviz version 2.28.0 (20111029.1739)
 -->
<!-- Title: G Pages: 1 -->
<svg width="155pt" height="182pt"
 viewBox="0.00 0.00 155.00 182.00" xmlns="http://www.w3.org/2000/svg" xmlns:xlink="http://www.w3.org/1999/xlink">
<g id="graph1" class="graph" transform="scale(1 1) rotate(0) translate(4 178)">
<title>G</title>
<!-- Node1 -->
<g id="node1" class="node"><title>Node1</title>
<polygon fill="#bfbfbf" stroke="black" points="40,-0.5 40,-79.5 108,-79.5 108,-0.5 40,-0.5"/>
<text text-anchor="middle" x="74" y="-67.5" font-family="Helvetica,sans-Serif" font-size="10.00">E</text>
<polyline fill="none" stroke="black" points="40,-60.5 108,-60.5 "/>
<text text-anchor="start" x="48" y="-48.5" font-family="Helvetica,sans-Serif" font-size="10.00">+ m_chilren</text>
<text text-anchor="start" x="48" y="-37.5" font-family="Helvetica,sans-Serif" font-size="10.00"># out</text>
<polyline fill="none" stroke="black" points="40,-30.5 108,-30.5 "/>
<text text-anchor="start" x="48" y="-18.5" font-family="Helvetica,sans-Serif" font-size="10.00">+ children()</text>
<text text-anchor="start" x="48" y="-7.5" font-family="Helvetica,sans-Serif" font-size="10.00">+ count()</text>
</g>
<!-- Node2 -->
<g id="node2" class="node"><title>Node2</title>
<a xlink:href="../../d8/d4f/class_a.html" target="_top" xlink:title="{A\n|+ m_parent\l|}">
<polygon fill="none" stroke="black" points="0,-116.5 0,-173.5 66,-173.5 66,-116.5 0,-116.5"/>
<text text-anchor="middle" x="33" y="-161.5" font-family="Helvetica,sans-Serif" font-size="10.00">A</text>
<polyline fill="none" stroke="black" points="0,-154.5 66,-154.5 "/>
<text text-anchor="start" x="8" y="-142.5" font-family="Helvetica,sans-Serif" font-size="10.00">+ m_parent</text>
<polyline fill="none" stroke="black" points="0,-135.5 66,-135.5 "/>
<text text-anchor="middle" x="33" y="-123.5" font-family="Helvetica,sans-Serif" font-size="10.00"> </text>
</a>
</g>
<!-- Node2&#45;&gt;Node1 -->
<g id="edge2" class="edge"><title>Node2&#45;&gt;Node1</title>
<path fill="none" stroke="darkgreen" d="M47.7229,-107.013C51.2776,-98.0832 55.0847,-88.519 58.6666,-79.5205"/>
<polygon fill="none" stroke="darkgreen" points="44.4338,-105.812 43.9872,-116.398 50.9375,-108.401 44.4338,-105.812"/>
</g>
<!-- Node3 -->
<g id="node4" class="node"><title>Node3</title>
<a xlink:href="../../df/d95/class_b.html" target="_top" xlink:title="{B\n|+ m_friend\l|}">
<polygon fill="none" stroke="black" points="84.5,-116.5 84.5,-173.5 147.5,-173.5 147.5,-116.5 84.5,-116.5"/>
<text text-anchor="middle" x="116" y="-161.5" font-family="Helvetica,sans-Serif" font-size="10.00">B</text>
<polyline fill="none" stroke="black" points="84.5,-154.5 147.5,-154.5 "/>
<text text-anchor="start" x="92.5" y="-142.5" font-family="Helvetica,sans-Serif" font-size="10.00">+ m_friend</text>
<polyline fill="none" stroke="black" points="84.5,-135.5 147.5,-135.5 "/>
<text text-anchor="middle" x="116" y="-123.5" font-family="Helvetica,sans-Serif" font-size="10.00"> </text>
</a>
</g>
<!-- Node3&#45;&gt;Node1 -->
<g id="edge4" class="edge"><title>Node3&#45;&gt;Node1</title>
<path fill="none" stroke="#8b1a1a" d="M100.918,-107.013C97.2766,-98.0832 93.3767,-88.519 89.7074,-79.5205"/>
<polygon fill="none" stroke="#8b1a1a" points="97.728,-108.46 104.745,-116.398 104.21,-105.817 97.728,-108.46"/>
</g>
</g>
</svg>
