<?xml version="1.0" encoding="UTF-8" standalone="no"?>
<!DOCTYPE svg PUBLIC "-//W3C//DTD SVG 1.1//EN"
 "http://www.w3.org/Graphics/SVG/1.1/DTD/svg11.dtd">
<!-- Generated by graphviz version 2.28.0 (20111029.1739)
 -->
<!-- Title: G Pages: 1 -->
<svg width="161pt" height="276pt"
 viewBox="0.00 0.00 161.00 276.00" xmlns="http://www.w3.org/2000/svg" xmlns:xlink="http://www.w3.org/1999/xlink">
<g id="graph1" class="graph" transform="scale(1 1) rotate(0) translate(4 272)">
<title>G</title>
<!-- Node1 -->
<g id="node1" class="node"><title>Node1</title>
<polygon fill="#bfbfbf" stroke="black" points="24,-210.5 24,-267.5 90,-267.5 90,-210.5 24,-210.5"/>
<text text-anchor="middle" x="57" y="-255.5" font-family="Helvetica,sans-Serif" font-size="10.00">A</text>
<polyline fill="none" stroke="black" points="24,-248.5 90,-248.5 "/>
<text text-anchor="start" x="32" y="-236.5" font-family="Helvetica,sans-Serif" font-size="10.00">+ m_parent</text>
<polyline fill="none" stroke="black" points="24,-229.5 90,-229.5 "/>
<text text-anchor="middle" x="57" y="-217.5" font-family="Helvetica,sans-Serif" font-size="10.00"> </text>
</g>
<!-- Node2 -->
<g id="node3" class="node"><title>Node2</title>
<a xlink:href="../../dd/de0/class_c.html" target="_top" xlink:title="{C\n||}">
<polygon fill="none" stroke="black" points="-0.5,-105.5 -0.5,-162.5 28.5,-162.5 28.5,-105.5 -0.5,-105.5"/>
<text text-anchor="middle" x="14" y="-150.5" font-family="Helvetica,sans-Serif" font-size="10.00">C</text>
<polyline fill="none" stroke="black" points="-0.5,-143.5 28.5,-143.5 "/>
<text text-anchor="middle" x="14" y="-131.5" font-family="Helvetica,sans-Serif" font-size="10.00"> </text>
<polyline fill="none" stroke="black" points="-0.5,-124.5 28.5,-124.5 "/>
<text text-anchor="middle" x="14" y="-112.5" font-family="Helvetica,sans-Serif" font-size="10.00"> </text>
</a>
</g>
<!-- Node1&#45;&gt;Node2 -->
<g id="edge2" class="edge"><title>Node1&#45;&gt;Node2</title>
<path fill="none" stroke="#8b1a1a" d="M41.5665,-201.031C36.2867,-188.384 30.4752,-174.464 25.555,-162.678"/>
<polygon fill="none" stroke="#8b1a1a" points="38.3944,-202.518 45.4768,-210.398 44.8541,-199.821 38.3944,-202.518"/>
</g>
<!-- Node3 -->
<g id="node5" class="node"><title>Node3</title>
<a xlink:href="../../d0/dd0/class_d.html" target="_top" xlink:title="{D\n|+ m_child\l|}">
<polygon fill="none" stroke="black" points="5.5,-0.5 5.5,-57.5 64.5,-57.5 64.5,-0.5 5.5,-0.5"/>
<text text-anchor="middle" x="35" y="-45.5" font-family="Helvetica,sans-Serif" font-size="10.00">D</text>
<polyline fill="none" stroke="black" points="5.5,-38.5 64.5,-38.5 "/>
<text text-anchor="start" x="13.5" y="-26.5" font-family="Helvetica,sans-Serif" font-size="10.00">+ m_child</text>
<polyline fill="none" stroke="black" points="5.5,-19.5 64.5,-19.5 "/>
<text text-anchor="middle" x="35" y="-7.5" font-family="Helvetica,sans-Serif" font-size="10.00"> </text>
</a>
</g>
<!-- Node1&#45;&gt;Node3 -->
<g id="edge6" class="edge"><title>Node1&#45;&gt;Node3</title>
<path fill="none" stroke="darkgreen" d="M53.0037,-200.217C48.6564,-159.115 41.8105,-94.3906 37.9335,-57.735"/>
<polygon fill="none" stroke="darkgreen" points="49.5461,-200.803 54.0786,-210.379 56.5072,-200.067 49.5461,-200.803"/>
</g>
<!-- Node4 -->
<g id="node8" class="node"><title>Node4</title>
<a xlink:href="../../da/d26/class_e.html" target="_top" xlink:title="{E\n|+ m_chilren\l# out\l|+ children()\l+ count()\l}">
<polygon fill="none" stroke="black" points="85,-94.5 85,-173.5 153,-173.5 153,-94.5 85,-94.5"/>
<text text-anchor="middle" x="119" y="-161.5" font-family="Helvetica,sans-Serif" font-size="10.00">E</text>
<polyline fill="none" stroke="black" points="85,-154.5 153,-154.5 "/>
<text text-anchor="start" x="93" y="-142.5" font-family="Helvetica,sans-Serif" font-size="10.00">+ m_chilren</text>
<text text-anchor="start" x="93" y="-131.5" font-family="Helvetica,sans-Serif" font-size="10.00"># out</text>
<polyline fill="none" stroke="black" points="85,-124.5 153,-124.5 "/>
<text text-anchor="start" x="93" y="-112.5" font-family="Helvetica,sans-Serif" font-size="10.00">+ children()</text>
<text text-anchor="start" x="93" y="-101.5" font-family="Helvetica,sans-Serif" font-size="10.00">+ count()</text>
</a>
</g>
<!-- Node1&#45;&gt;Node4 -->
<g id="edge8" class="edge"><title>Node1&#45;&gt;Node4</title>
<path fill="none" stroke="darkgreen" d="M78.9212,-201.582C84.3941,-192.49 90.2811,-182.71 95.8129,-173.52"/>
<polygon fill="none" stroke="darkgreen" points="75.7734,-200.025 73.6149,-210.398 81.7708,-203.635 75.7734,-200.025"/>
</g>
<!-- Node2&#45;&gt;Node3 -->
<g id="edge4" class="edge"><title>Node2&#45;&gt;Node3</title>
<path fill="none" stroke="midnightblue" d="M21.6893,-95.2859C24.227,-82.8392 27.0011,-69.2328 29.3569,-57.6783"/>
<polygon fill="none" stroke="midnightblue" points="18.196,-94.9002 19.6276,-105.398 25.0549,-96.2987 18.196,-94.9002"/>
</g>
</g>
</svg>
