<?xml version="1.0" encoding="UTF-8" standalone="no"?>
<!DOCTYPE svg PUBLIC "-//W3C//DTD SVG 1.1//EN"
 "http://www.w3.org/Graphics/SVG/1.1/DTD/svg11.dtd">
<!-- Generated by graphviz version 2.28.0 (20111029.1739)
 -->
<!-- Title: G Pages: 1 -->
<svg width="112pt" height="85pt"
 viewBox="0.00 0.00 112.00 84.92" xmlns="http://www.w3.org/2000/svg" xmlns:xlink="http://www.w3.org/1999/xlink">
<g id="graph1" class="graph" transform="scale(1 1) rotate(0) translate(4 80.9166)">
<title>G</title>
<!-- Node1 -->
<g id="node1" class="node"><title>Node1</title>
<polygon fill="#bfbfbf" stroke="black" points="0,-57.4166 0,-76.4166 86,-76.4166 86,-57.4166 0,-57.4166"/>
<text text-anchor="middle" x="43" y="-64.4166" font-family="Helvetica,sans-Serif" font-size="10.00">src/diagram_d.h</text>
</g>
<!-- Node2 -->
<g id="node3" class="node"><title>Node2</title>
<a xlink:href="../../df/d55/diagram__e_8h.html" target="_top" xlink:title="src/diagram_e.h">
<polygon fill="none" stroke="black" points="0,-1.41656 0,-20.4166 86,-20.4166 86,-1.41656 0,-1.41656"/>
<text text-anchor="middle" x="43" y="-8.41656" font-family="Helvetica,sans-Serif" font-size="10.00">src/diagram_e.h</text>
</a>
</g>
<!-- Node1&#45;&gt;Node2 -->
<g id="edge2" class="edge"><title>Node1&#45;&gt;Node2</title>
<path fill="none" stroke="midnightblue" d="M43,-46.7211C43,-37.8268 43,-27.6964 43,-20.6676"/>
<polygon fill="midnightblue" stroke="midnightblue" points="39.5001,-46.9995 43,-56.9996 46.5001,-46.9996 39.5001,-46.9995"/>
</g>
<!-- Node2&#45;&gt;Node2 -->
<g id="edge4" class="edge"><title>Node2&#45;&gt;Node2</title>
<path fill="none" stroke="midnightblue" d="M79.2059,-21.3905C92.7941,-21.7569 104,-18.2656 104,-10.9166 104,-1.78375 86.6942,1.39133 69.0166,-1.39133"/>
<polygon fill="midnightblue" stroke="midnightblue" points="79.298,-17.884 69.0166,-20.4418 78.6491,-24.8538 79.298,-17.884"/>
</g>
</g>
</svg>
