<?xml version="1.0" encoding="UTF-8" standalone="no"?>
<!DOCTYPE svg PUBLIC "-//W3C//DTD SVG 1.1//EN"
 "http://www.w3.org/Graphics/SVG/1.1/DTD/svg11.dtd">
<!-- Generated by graphviz version 2.28.0 (20111029.1739)
 -->
<!-- Title: G Pages: 1 -->
<svg width="282pt" height="84pt"
 viewBox="0.00 0.00 282.00 84.00" xmlns="http://www.w3.org/2000/svg" xmlns:xlink="http://www.w3.org/1999/xlink">
<g id="graph1" class="graph" transform="scale(1 1) rotate(0) translate(4 80)">
<title>G</title>
<!-- Node1 -->
<g id="node1" class="node"><title>Node1</title>
<polygon fill="#bfbfbf" stroke="black" points="103,-56.5 103,-75.5 189,-75.5 189,-56.5 103,-56.5"/>
<text text-anchor="middle" x="146" y="-63.5" font-family="Helvetica,sans-Serif" font-size="10.00">src/diagram_c.h</text>
</g>
<!-- Node2 -->
<g id="node3" class="node"><title>Node2</title>
<a xlink:href="../../d9/dfb/diagram__a_8h.html" target="_top" xlink:title="diagram_a.h">
<polygon fill="none" stroke="black" points="0,-0.5 0,-19.5 70,-19.5 70,-0.5 0,-0.5"/>
<text text-anchor="middle" x="35" y="-7.5" font-family="Helvetica,sans-Serif" font-size="10.00">diagram_a.h</text>
</a>
</g>
<!-- Node1&#45;&gt;Node2 -->
<g id="edge2" class="edge"><title>Node1&#45;&gt;Node2</title>
<path fill="none" stroke="midnightblue" d="M128.166,-56.324C110.284,-47.6247 82.5249,-34.1202 61.9544,-24.113"/>
<polygon fill="midnightblue" stroke="midnightblue" points="63.3133,-20.8819 52.7898,-19.6545 60.251,-27.1765 63.3133,-20.8819"/>
</g>
<!-- Node3 -->
<g id="node5" class="node"><title>Node3</title>
<polygon fill="none" stroke="#bfbfbf" points="88.5,-0.5 88.5,-19.5 135.5,-19.5 135.5,-0.5 88.5,-0.5"/>
<text text-anchor="middle" x="112" y="-7.5" font-family="Helvetica,sans-Serif" font-size="10.00">math.h</text>
</g>
<!-- Node1&#45;&gt;Node3 -->
<g id="edge4" class="edge"><title>Node1&#45;&gt;Node3</title>
<path fill="none" stroke="midnightblue" d="M140.386,-56.083C135.633,-48.5341 128.682,-37.4948 122.848,-28.2298"/>
<polygon fill="midnightblue" stroke="midnightblue" points="125.8,-26.3486 117.51,-19.7511 119.876,-30.0783 125.8,-26.3486"/>
</g>
<!-- Node4 -->
<g id="node7" class="node"><title>Node4</title>
<polygon fill="none" stroke="#bfbfbf" points="154,-0.5 154,-19.5 208,-19.5 208,-0.5 154,-0.5"/>
<text text-anchor="middle" x="181" y="-7.5" font-family="Helvetica,sans-Serif" font-size="10.00">iostream</text>
</g>
<!-- Node1&#45;&gt;Node4 -->
<g id="edge6" class="edge"><title>Node1&#45;&gt;Node4</title>
<path fill="none" stroke="midnightblue" d="M151.78,-56.083C156.672,-48.5341 163.827,-37.4948 169.833,-28.2298"/>
<polygon fill="midnightblue" stroke="midnightblue" points="172.826,-30.0463 175.328,-19.7511 166.952,-26.239 172.826,-30.0463"/>
</g>
<!-- Node5 -->
<g id="node9" class="node"><title>Node5</title>
<polygon fill="none" stroke="#bfbfbf" points="226,-0.5 226,-19.5 274,-19.5 274,-0.5 226,-0.5"/>
<text text-anchor="middle" x="250" y="-7.5" font-family="Helvetica,sans-Serif" font-size="10.00">stdlib.h</text>
</g>
<!-- Node1&#45;&gt;Node5 -->
<g id="edge8" class="edge"><title>Node1&#45;&gt;Node5</title>
<path fill="none" stroke="midnightblue" d="M162.709,-56.324C179.312,-47.7034 205.002,-34.3643 224.22,-24.3855"/>
<polygon fill="midnightblue" stroke="midnightblue" points="226.07,-27.3689 233.332,-19.6545 222.844,-21.1565 226.07,-27.3689"/>
</g>
</g>
</svg>
