<?xml version="1.0" encoding="UTF-8" standalone="no"?>
<!DOCTYPE svg PUBLIC "-//W3C//DTD SVG 1.1//EN"
 "http://www.w3.org/Graphics/SVG/1.1/DTD/svg11.dtd">
<!-- Generated by graphviz version 2.28.0 (20111029.1739)
 -->
<!-- Title: G Pages: 1 -->
<svg width="166pt" height="84pt"
 viewBox="0.00 0.00 166.00 84.00" xmlns="http://www.w3.org/2000/svg" xmlns:xlink="http://www.w3.org/1999/xlink">
<g id="graph1" class="graph" transform="scale(1 1) rotate(0) translate(4 80)">
<title>G</title>
<!-- Node1 -->
<g id="node1" class="node"><title>Node1</title>
<polygon fill="#bfbfbf" stroke="black" points="36,-56.5 36,-75.5 122,-75.5 122,-56.5 36,-56.5"/>
<text text-anchor="middle" x="79" y="-63.5" font-family="Helvetica,sans-Serif" font-size="10.00">src/diagram_d.h</text>
</g>
<!-- Node2 -->
<g id="node3" class="node"><title>Node2</title>
<a xlink:href="../../d9/dfb/diagram__a_8h.html" target="_top" xlink:title="diagram_a.h">
<polygon fill="none" stroke="black" points="0,-0.5 0,-19.5 70,-19.5 70,-0.5 0,-0.5"/>
<text text-anchor="middle" x="35" y="-7.5" font-family="Helvetica,sans-Serif" font-size="10.00">diagram_a.h</text>
</a>
</g>
<!-- Node1&#45;&gt;Node2 -->
<g id="edge2" class="edge"><title>Node1&#45;&gt;Node2</title>
<path fill="none" stroke="midnightblue" d="M71.7343,-56.083C65.4552,-48.3768 56.2124,-37.0333 48.5692,-27.6531"/>
<polygon fill="midnightblue" stroke="midnightblue" points="51.1606,-25.2926 42.1305,-19.7511 45.7339,-29.7143 51.1606,-25.2926"/>
</g>
<!-- Node3 -->
<g id="node5" class="node"><title>Node3</title>
<a xlink:href="../../d3/dea/diagram__b_8h.html" target="_top" xlink:title="diagram_b.h">
<polygon fill="none" stroke="black" points="88,-0.5 88,-19.5 158,-19.5 158,-0.5 88,-0.5"/>
<text text-anchor="middle" x="123" y="-7.5" font-family="Helvetica,sans-Serif" font-size="10.00">diagram_b.h</text>
</a>
</g>
<!-- Node1&#45;&gt;Node3 -->
<g id="edge4" class="edge"><title>Node1&#45;&gt;Node3</title>
<path fill="none" stroke="midnightblue" d="M86.2657,-56.083C92.5448,-48.3768 101.788,-37.0333 109.431,-27.6531"/>
<polygon fill="midnightblue" stroke="midnightblue" points="112.266,-29.7143 115.869,-19.7511 106.839,-25.2926 112.266,-29.7143"/>
</g>
</g>
</svg>
